# xmcd CD database file
# Copyright (C) 1993-1998 Ti Kan
#
# Track frame offsets:
# 177
# 15037
# 28700
# 43312
# 57025
# 69970
# 76755
# 82895
# 88585
# 92487
# 95820
# 100205
# 106545
#
# Disc length: 1679 seconds
#
# Revision: 0
# Processed by: cddbd v1.4b41PL1 Copyright (c) Steve Scherf et al.
# Submitted via: inCDius 1.1b5
#
DISCID=85068d0d
DTITLE=Leadbelly - Bourgeois Blues: Golden Classics Part One
DYEAR=1900
DGENRE=
TTITLE0=The Bourgeois Blues
TTITLE1=Looky, Looky Yonder//Black Betty//Yellow Woman's Doorbells
TTITLE2=Poor Howard Green Corn
TTITLE3=The Gallis Pole
TTITLE4=De Kalb Woman
TTITLE5=Noted Rider
TTITLE6=Big Fat Woman
TTITLE7=Burrow Love and Go
TTITLE8=Bring Me Li'l Water Silvy
TTITLE9=Julie Ann Johnson
TTITLE10=Line 'em
TTITLE11=Whoe Back Buck
TTITLE12=John Hardy
EXTD=Published by:\nCollectable Recores Corp.\nBox 35\nNarberth PA 19072
EXTT0=
EXTT1=
EXTT2=
EXTT3=
EXTT4=
EXTT5=
EXTT6=
EXTT7=
EXTT8=
EXTT9=
EXTT10=
EXTT11=
EXTT12=
PLAYORDER=
